# xmcd
#
# Track frame offsets: 
#        205
#        11292
#        21690
#        34942
#        44730
#        54847
#        67307
#        83447
#        96452
#        109835
#        119817
#        131467
#
# Disc length: 1933 seconds
#
# Revision: 3
# Processed by: cddbd v1.5.2PL0 Copyright (c) Steve Scherf et al.
# Submitted via: ExactAudioCopy v0.95b2
#
DISCID=ab078b0c
DTITLE=Maxine Brown - Golden Classics
DYEAR=1900
DGENRE=Oldies
TTITLE0=All In My Mind
TTITLE1=Funny
TTITLE2=Since I Found You
TTITLE3=If You Gotta Make A Fool Of Somebody
TTITLE4=Little Girl Lost
TTITLE5=Oh No Not My Baby
TTITLE6=Ask Me
TTITLE7=Gotta Find A Way  
TTITLE8=One In A Million
TTITLE9=Put Yourself In My Place 
TTITLE10=It's Gonna Be Alright
TTITLE11=Coming Back To You
EXTD=
EXTT0=
EXTT1=
EXTT2=
EXTT3=
EXTT4=
EXTT5=
EXTT6=
EXTT7=
EXTT8=
EXTT9=
EXTT10=
EXTT11=
PLAYORDER=
